<svg width="512" height="512" viewBox="0 0 512 512" fill="none" xmlns="http://www.w3.org/2000/svg">
<path fill-rule="evenodd" clip-rule="evenodd" d="M494.5 511.7H29.4C25.7 511.6 22 509 22 504.3V39.1H10L29.4 0.300049L48.8 39.1H36.9V496.7H91.2V386.6C91.2 383.9 92.4 381.5 94.2 379.8C95.9 378.3 98.1 377.4 100.5 377.4H155.9C158.5 377.4 160.8 378.4 162.5 380.1C164.2 381.8 165.2 384.1 165.2 386.7V496.9H236.2V319.4C236.2 316.7 237.4 314.3 239.2 312.5C240.9 311 243.1 310.1 245.5 310.1H300.9C303.5 310.1 305.8 311.1 307.5 312.8C309.2 314.5 310.2 316.8 310.2 319.4V496.8H381.2V252.1C381.2 249.5 382.2 247.2 383.9 245.5C385.6 243.8 387.9 242.8 390.5 242.8H445.9C451 242.8 455.2 247 455.2 252.1V496.7H494.6C495.2 496.7 495.7 496.8 496.2 496.9C505 499.1 503.2 511.7 494.5 511.7ZM136.8 87.9H165.2C169.3 87.9 172.7 84.5 172.7 80.4C172.7 76.3 169.3 72.9 165.2 72.9H136.8C127 73 127 87.8 136.8 87.9ZM136.8 39.2001H219.5C229.3 39.2001 229.3 24.3001 219.5 24.2001H136.8C127 24.2001 127 39.1001 136.8 39.2001ZM90.3 87.9H107.3C117.1 87.9 117.1 73 107.3 72.9H90.3C80.5 73 80.5 87.8 90.3 87.9ZM90.3 39.2001H107.3C111.4 39.2001 114.8 35.8001 114.8 31.7001C114.8 27.6001 111.4 24.2001 107.3 24.2001H90.3C80.5 24.2001 80.5 39.1001 90.3 39.2001ZM195 131.1L88.5 237.6L123.9 273L207.5 189.4C210.4 186.5 215.2 186.5 218.1 189.4L265.5 236.8C275.3 246.6 291.1 246.6 300.9 236.8L411.8 125.9C414.7 123 419.5 123 422.4 125.9L433.7 137.2L447.7 55.1L365.6 69.1C370.5 75.2 383.9 82.4 376.4 90.5L288.5 178.4C285.6 181.3 280.8 181.3 277.9 178.4L230.5 131C220.7 121.3 204.8 121.3 195 131.1Z" fill="white"/>
</svg>
