<svg width="8" height="10" viewBox="0 0 8 10" fill="none" xmlns="http://www.w3.org/2000/svg">
<path d="M2.87774 7.04356L3.73129 7.89711V6.69L3.73129 0.750004C3.73129 0.6837 3.75763 0.620111 3.80451 0.573228C3.8514 0.526343 3.91499 0.500004 3.98129 0.500004C4.11915 0.500004 4.23129 0.612146 4.23129 0.750004L4.23129 6.69V7.89711L5.08485 7.04356L7.05485 5.07356L7.06108 5.06732L7.0671 5.06086C7.08998 5.0363 7.11758 5.0166 7.14825 5.00294C7.17892 4.98927 7.21202 4.98193 7.24559 4.98133C7.27916 4.98074 7.3125 4.98692 7.34363 4.99949C7.37476 5.01206 7.40304 5.03078 7.42678 5.05452C7.45052 5.07826 7.46923 5.10654 7.4818 5.13767C7.49438 5.16879 7.50055 5.20214 7.49996 5.23571C7.49937 5.26927 7.49202 5.30238 7.47836 5.33304C7.46469 5.36371 7.44499 5.39131 7.42043 5.4142L7.41398 5.42021L7.40774 5.42645L4.15796 8.67623C4.15793 8.67626 4.15789 8.6763 4.15786 8.67633C4.11099 8.72308 4.0475 8.74934 3.98129 8.74934C3.91504 8.74934 3.8515 8.72305 3.80463 8.67623L0.562757 5.43436C0.521365 5.38758 0.498934 5.32691 0.500039 5.2643C0.501181 5.19954 0.527419 5.13774 0.573224 5.09194C0.619028 5.04613 0.680823 5.01989 0.74559 5.01875C0.808203 5.01765 0.868867 5.04008 0.915651 5.08147L2.87774 7.04356Z" fill="#FF0000" stroke="#FF0000"/>
</svg>
