<svg width="18" height="18" viewBox="0 0 18 18" fill="none" xmlns="http://www.w3.org/2000/svg">
<path d="M0.785714 16.7143V17.2143H1.28571H17.5V17.5H0.849964L0.5 17.15V0.5H0.785714V16.7143ZM5.14286 14.6429H5.64286V14.1429V5.14286V4.64286H5.14286H3.85714H3.35714V5.14286V14.1429V14.6429H3.85714H5.14286ZM15.9286 2.57143V2.07143H15.4286H14.1429H13.6429V2.57143V14.1429V14.6429H14.1429H15.4286H15.9286V14.1429V2.57143ZM10.2857 14.6429H10.7857V14.1429V7.71429V7.21429H10.2857H9H8.5V7.71429V14.1429V14.6429H9H10.2857ZM3.42139 14.9286L3.07143 14.5786V4.70711L3.42139 4.35714H5.57861L5.92857 4.70711V14.5786L5.57861 14.9286H3.42139ZM13.3571 14.5786V2.13568L13.7071 1.78571H15.8643L16.2143 2.13568V14.5786L15.8643 14.9286H13.7071L13.3571 14.5786ZM8.21429 14.5786V7.27853L8.56425 6.92857H10.7215L11.0714 7.27853V14.5786L10.7215 14.9286H8.56425L8.21429 14.5786Z" fill="white" stroke="white"/>
</svg>
