<svg width="25" height="21" viewBox="0 0 25 21" fill="none" xmlns="http://www.w3.org/2000/svg">
<path fill-rule="evenodd" clip-rule="evenodd" d="M4.44468 19.6672C3.89278 19.1702 3.84822 18.32 4.34516 17.7681L6.28493 15.6137C3.43112 14.3881 1.18189 12.3447 0 9.86304C1.95136 5.76568 6.8123 2.86304 12.5 2.86304C14.1361 2.86304 15.7038 3.10323 17.1535 3.54295L19.943 0.444934C20.4399 -0.10697 21.2902 -0.151531 21.8421 0.345406C22.1853 0.654455 22.3323 1.10016 22.2749 1.52576L7.03131 18.7555C6.98452 18.8084 6.94746 18.8665 6.91999 18.9277L6.34378 19.5676C5.84684 20.1195 4.99659 20.1641 4.44468 19.6672ZM10.6166 16.7555C11.232 16.8264 11.8608 16.863 12.5 16.863C18.1877 16.863 23.0486 13.9604 25 9.86304C24.1259 8.02775 22.6681 6.43216 20.8137 5.22976L19.5391 6.67047C21.0703 7.56846 22.2745 8.753 23 10.113C21.3608 13.1861 17.2776 15.363 12.5 15.363C12.2852 15.363 12.0719 15.3586 11.8601 15.35L10.6166 16.7555ZM17.4851 8.99209C17.3172 11.1185 15.749 12.8509 13.7025 13.2675L17.4851 8.99209ZM7.33517 14.4473L9.48338 12.0615C8.56982 11.1958 8 9.97097 8 8.61304C8 7.2534 8.57125 6.02719 9.48684 5.16131C6.05514 5.85685 3.28111 7.71128 2 10.113C3.00048 11.9887 4.91148 13.5306 7.33517 14.4473ZM13.561 7.53284L15.5652 5.30695C15.2934 5.03282 14.9165 4.86304 14.5 4.86304C13.6716 4.86304 13 5.53461 13 6.36304C13 6.83605 13.2189 7.25792 13.561 7.53284Z" fill="#ffffff"/>
</svg>
