<svg width="25" height="20" viewBox="0 0 25 20" fill="none" xmlns="http://www.w3.org/2000/svg">
<path fill-rule="evenodd" clip-rule="evenodd" d="M12.5 3C18.1877 3 23.0486 5.90264 25 10C23.0486 14.0974 18.1877 17 12.5 17C6.8123 17 1.95136 14.0974 0 10C1.95136 5.90264 6.8123 3 12.5 3ZM17.5 8.75C17.5 7.46571 16.9903 6.30046 16.1622 5.44551C19.293 6.23284 21.8007 8.00158 23 10.25C21.3608 13.323 17.2776 15.5 12.5 15.5C7.72233 15.5 3.63915 13.323 2 10.25C3.28111 7.84824 6.05514 5.99381 9.48684 5.29827C8.57125 6.16414 8 7.39036 8 8.75C8 11.3734 10.1266 13.5 12.75 13.5C15.3734 13.5 17.5 11.3734 17.5 8.75ZM14.5 8C15.3284 8 16 7.32843 16 6.5C16 5.67157 15.3284 5 14.5 5C13.6716 5 13 5.67157 13 6.5C13 7.32843 13.6716 8 14.5 8Z" fill="#ffffff"/>
</svg>
