<svg width="8" height="10" viewBox="0 0 8 10" fill="none" xmlns="http://www.w3.org/2000/svg">
<path d="M5.12226 2.20579L4.26871 1.35223V2.55934V8.49934C4.26871 8.56564 4.24237 8.62923 4.19549 8.67612C4.1486 8.723 4.08501 8.74934 4.01871 8.74934C3.88085 8.74934 3.76871 8.6372 3.76871 8.49934V2.55934V1.35223L2.91515 2.20579L0.945155 4.17579L0.938917 4.18202L0.932903 4.18848C0.910015 4.21304 0.882415 4.23274 0.851749 4.24641C0.821083 4.26007 0.787979 4.26742 0.75441 4.26801C0.720842 4.2686 0.687499 4.26243 0.65637 4.24985C0.625241 4.23728 0.596963 4.21856 0.573223 4.19483C0.549483 4.17109 0.530769 4.14281 0.518195 4.11168C0.505622 4.08055 0.499447 4.04721 0.500039 4.01364C0.500631 3.98007 0.507978 3.94697 0.521643 3.9163C0.535307 3.88563 0.555008 3.85803 0.579569 3.83515L0.586024 3.82913L0.592262 3.82289L3.84204 0.573113C3.84207 0.57308 3.84211 0.573047 3.84214 0.573014C3.88901 0.52626 3.9525 0.5 4.01871 0.5C4.08496 0.5 4.1485 0.526297 4.19537 0.573113L7.43724 3.81498C7.47864 3.86177 7.50107 3.92243 7.49996 3.98504C7.49882 4.04981 7.47258 4.1116 7.42678 4.15741C7.38097 4.20321 7.31918 4.22945 7.25441 4.23059C7.1918 4.2317 7.13113 4.20927 7.08435 4.16787L5.12226 2.20579Z" fill="#3CFF00" stroke="#3CFF00"/>
</svg>
