<svg width="37" height="57" viewBox="0 0 37 57" fill="none" xmlns="http://www.w3.org/2000/svg">
<path d="M3.44406 32.1626C2.17506 33.0516 1.15405 34.2016 0.561052 35.6085C-0.923948 39.1359 0.667059 43.5156 3.82506 45.9257C6.69906 48.1156 10.5111 48.6049 14.1151 47.8179C16.0741 47.3897 17.9041 46.5863 19.8171 46.0154C21.1131 45.6321 22.4651 45.3262 23.8261 45.1876C24.5571 45.1142 25.7111 45.0082 26.2901 45.5179C26.6031 45.7952 26.6631 46.2397 26.5481 46.6189C26.2951 47.459 25.4951 48.1604 24.8831 48.8088C24.2771 49.449 23.7161 50.1464 23.6011 50.9987C23.3711 52.6421 24.7781 53.0091 26.0151 53.7676C26.3231 53.9593 26.6211 54.1958 26.8561 54.4527C27.0031 54.6117 27.0861 54.8075 27.1131 55.0114C27.1641 55.4151 26.3001 56.2266 26.7041 56.2878C26.7871 56.3 26.8651 56.2633 26.9391 56.2307C27.2881 56.0594 27.6011 55.8392 27.7891 55.5252C28.2721 54.7218 27.7111 53.8369 27.0901 53.2456C26.0281 52.2343 25.3941 51.4309 26.3641 50.1015C26.8101 49.4898 27.4441 49.0127 28.0561 48.5315C28.6671 48.0503 29.2791 47.5365 29.6421 46.884C30.7551 44.8817 29.1001 42.8183 26.8191 42.3901C24.4471 41.9415 21.8761 42.5655 19.6461 43.2546C18.5291 43.6013 17.2141 43.9438 15.8351 44.1885C11.8301 44.9021 7.23706 44.7961 5.05806 41.5868C3.59106 39.4254 4.06906 36.681 6.19306 35.2211" fill="white"/>
<path d="M21.44 15.9691V19.1498C20.116 17.8652 18.856 16.9315 17.674 16.3442C17.403 16.2097 17.118 16.0873 16.833 15.9854C16.244 15.7733 15.624 15.6264 14.971 15.5449C14.856 15.655 14.722 15.7407 14.584 15.8386C14.373 15.9854 14.171 16.1811 14.069 16.4095C14.069 16.4095 13.734 15.9649 13.729 15.4633C13.706 15.4633 13.683 15.4633 13.665 15.4633C11.2 15.4633 9.00305 16.1974 7.06705 17.6614C6.55705 18.0488 6.06004 18.4891 5.58604 18.9785C3.31504 21.3233 2.17905 24.1331 2.17905 27.4118C2.17905 30.7272 3.24605 33.545 5.37505 35.8613C7.50405 38.1776 10.088 39.3356 13.122 39.3356C14.929 39.3356 16.447 38.9932 17.674 38.3081C18.897 37.623 20.116 36.5138 21.32 34.9805H21.44V38.9116H29.155V15.9691H21.44ZM19.633 31.4897C18.548 32.5704 17.242 33.1087 15.715 33.1087H15.646C15.624 33.1087 15.601 33.1087 15.578 33.1087H15.573C15.086 33.1005 14.626 33.0475 14.198 32.9496C14.06 32.917 13.927 32.8803 13.803 32.8395C13.063 32.6112 12.419 32.2318 11.872 31.7058C11.173 31.0329 10.722 30.2092 10.525 29.2305C10.506 29.1407 10.492 29.0552 10.479 28.9655C10.46 28.8472 10.446 28.7249 10.437 28.6026C10.423 28.4802 10.419 28.362 10.414 28.2355C10.41 28.0724 10.41 27.9175 10.414 27.7788C10.419 27.6565 10.423 27.5381 10.433 27.4198C10.433 27.4035 10.437 27.3831 10.437 27.3668C10.442 27.3342 10.442 27.2975 10.446 27.2649C10.446 27.2608 10.446 27.2608 10.446 27.2567C10.465 27.0814 10.492 26.906 10.52 26.7388C10.722 25.6541 11.196 24.7162 11.945 23.9291C12.971 22.8525 14.244 22.3102 15.775 22.3102C17.122 22.3102 18.304 22.7384 19.325 23.5947C19.431 23.6844 19.532 23.7743 19.633 23.8721C20.718 24.9161 21.26 26.1516 21.26 27.5748C21.26 28.0519 21.205 28.5087 21.1 28.9409C20.87 29.8952 20.378 30.7476 19.633 31.4897Z" fill="#FFCF02"/>
<path d="M19.481 0.701154C16.819 1.47595 14.768 3.06226 12.97 4.80356C12.598 5.16246 12.267 5.54576 11.963 5.94946C11.058 7.15246 9.09004 9.85615 8.73604 10.9409C8.35904 11.6138 7.98204 11.6913 7.32404 12.2133C6.66704 12.7352 5.63204 13.7303 6.73604 15.8712C6.87404 16.177 6.93805 16.8091 7.07105 17.6533C7.12705 18.0121 7.19505 18.4077 7.28705 18.8318C7.49005 19.7616 7.78405 21.1807 8.86005 21.4865C8.85105 21.5926 8.81904 21.8413 8.71704 22.2165C8.57504 22.7344 8.34004 23.2237 7.95004 23.3624C8.37304 23.3012 8.55205 23.0688 8.55205 23.0117C8.57005 23.4603 8.79105 23.7824 8.79105 23.7824C8.79105 23.7824 8.67604 23.1789 8.71704 22.9057C8.75004 22.6855 8.96604 21.8454 9.04804 21.5273C9.14004 21.5436 9.23704 21.5477 9.33304 21.5436C9.40704 21.5436 9.48505 21.5355 9.57305 21.5273C10.042 21.4661 10.616 21.2419 11.32 20.7933C13.605 19.3415 15.743 17.535 16.833 15.9813C17.269 15.3614 17.536 14.7783 17.582 14.2767C17.688 13.0859 17.384 11.8585 17.283 10.7819C17.237 10.2762 17.233 9.80315 17.334 9.38315C17.577 8.40035 18.823 5.49276 22.594 4.97896C26.368 4.46916 29.918 6.80585 30.548 10.1457C30.884 11.9156 30.621 14.0402 29.155 16.2708C28.35 17.4942 27.182 18.7543 25.55 20.0022C23.527 21.5436 21.444 22.6528 19.32 23.5867C18.713 23.8558 18.097 24.1087 17.485 24.3574C17.472 24.3656 17.462 24.3656 17.453 24.3656C16.497 24.7489 15.536 25.1159 14.566 25.487L10.515 26.7267C10.515 26.7267 9.20505 32.7213 15.582 33.1413C15.6 33.1291 15.623 33.1168 15.642 33.1005C16.69 32.3951 18.01 30.1073 19.384 29.6017C19.954 29.3896 20.529 29.1694 21.095 28.9369C23.945 27.7707 26.727 26.323 29.15 24.6429C33.766 21.4457 37.058 17.4127 36.948 12.8821C36.755 4.60375 30.373 -2.25945 19.481 0.701154ZM15.122 15.3655C15.076 15.4308 15.026 15.4919 14.97 15.545C14.855 15.6551 14.722 15.7407 14.584 15.8386C14.373 15.9854 14.17 16.1811 14.069 16.4095C14.069 16.4095 13.734 15.965 13.729 15.4634C13.729 15.2269 13.798 14.9822 14.009 14.7661C14.672 14.081 15.154 13.6161 15.154 13.6161C15.159 13.6406 15.159 13.6691 15.159 13.6936C15.214 14.2278 15.453 14.8639 15.122 15.3655Z" fill="white"/>
</svg>
