<?xml version="1.0" encoding="UTF-8"?>
<svg id="Camada_2" data-name="Camada 2" xmlns="http://www.w3.org/2000/svg" viewBox="0 0 1086.96 453.81">
  <defs>
    <style>
      .cls-1 {
        fill: #fff;
      }

      .cls-1, .cls-2, .cls-3 {
        stroke-width: 0px;
      }

      .cls-2 {
        fill: #d01317;
      }

      .cls-3 {
        fill: #ffce00;
      }
    </style>
  </defs>
  <g id="Camada_1-2" data-name="Camada 1">
    <g>
      <path class="cls-3" d="M30,130.99H0V10.97h30c120.02,0,180.03,60.01,180.03,180.03v240.04h-120.02v-240.04c0-40.01-20.01-60.01-60.01-60.01"/>
      <path class="cls-3" d="M630.11,311.02v120.02H240.04v-135.03c0-90.02,45.01-135.02,135.03-135.02h120.02c10,0,15-5,15-15s-5-15-15-15h-255.05V10.97h255.05c90.02,0,135.03,45.01,135.03,135.03s-45.01,135.03-135.03,135.03h-120.02c-10,0-15,5-15,15v15h270.05Z"/>
      <path class="cls-1" d="M902.23,123.16h-246.31V0h246.31c123.16,0,184.73,61.58,184.73,184.73s-61.57,184.73-184.73,184.73h-123.16v61.58h-123.15V153.94h123.15v92.37h123.16c41.05,0,61.58-20.53,61.58-61.58s-20.53-61.58-61.58-61.58"/>
      <rect class="cls-2" x="655.92" y="443.2" width="123.4" height="10.6"/>
      <rect class="cls-2" x="86.64" y="443.2" width="123.4" height="10.6"/>
    </g>
  </g>
</svg>