<?xml version="1.0" encoding="UTF-8"?>
<svg id="Camada_2" data-name="Camada 2" xmlns="http://www.w3.org/2000/svg" viewBox="0 0 8550.67 2775.82">
  <defs>
    <style>
      .cls-1 {
        fill: #f2cd30;
      }

      .cls-1, .cls-2 {
        stroke-width: 0px;
      }

      .cls-2 {
        fill: #fff;
      }
    </style>
  </defs>
  <g id="Camada_1-2" data-name="Camada 1">
    <g>
      <path class="cls-2" d="M340.14,784.83v180.62c15.82-10.55,39.09-30.76,69.87-60.64,30.76-29.87,60.42-55.14,88.99-75.8,28.55-20.64,62.83-37.35,102.83-50.1,39.98-12.73,76.24-19.12,108.77-19.12,51.85,0,108.11,18.25,168.75,54.71,60.64,36.49,111.18,101.31,151.61,194.46,70.31-89.65,139.08-153.59,206.32-191.82,67.24-38.23,129.86-57.35,187.87-57.35,102.83,0,189.84,42.42,261.04,127.22,71.19,84.83,106.79,189.18,106.79,313.11v718.51h-337.5v-628.86c0-62.4-17.14-114.9-51.42-157.54-34.28-42.62-75.6-63.94-123.93-63.94-58.01,0-108.11,24.18-150.29,72.51-42.19,48.35-63.28,105.92-63.28,172.7v605.13h-334.86v-613.04c0-65.92-17.37-121.49-52.08-166.78-34.73-45.25-76.69-67.89-125.9-67.89-58.01,0-108.11,24.84-150.29,74.49-42.19,49.66-63.28,109.21-63.28,178.63v594.58H0V784.83h340.14Z"/>
      <path class="cls-2" d="M2875.34,1918.62v-193.8h-5.27c-52.73,75.6-105.93,130.31-159.52,164.14-53.62,33.82-119.97,50.75-199.07,50.75-132.72,0-245.67-57.12-338.82-171.39-93.17-114.25-139.75-253.12-139.75-416.6s49.64-300.36,148.97-415.95c99.31-115.56,217.07-173.36,353.32-173.36,65.03,0,123.47,14.5,175.34,43.51,51.85,29,106.79,75.15,164.79,138.43v-156.88h337.5v1131.15h-337.5ZM2627.49,1099.92c-66.8,0-122.61,26.6-167.43,79.76-44.82,53.19-67.24,120.19-67.24,201.05,0,75.6,21.3,136.45,63.94,182.59,42.62,46.15,98.65,69.22,168.09,69.22s123.93-26.57,171.39-79.76c47.46-53.16,71.19-117.54,71.19-193.14,0-70.31-23.73-131.18-71.19-182.59-47.46-51.42-103.72-77.13-168.75-77.13Z"/>
      <path class="cls-2" d="M3903.66,784.83v180.62c15.82-10.55,39.09-30.76,69.87-60.64,30.76-29.87,60.42-55.14,88.99-75.8,28.55-20.64,62.83-37.35,102.83-50.1,39.98-12.73,76.24-19.12,108.77-19.12,51.85,0,108.11,18.25,168.75,54.71,60.64,36.49,111.18,101.31,151.61,194.46,70.31-89.65,139.08-153.59,206.32-191.82,67.24-38.23,129.86-57.35,187.87-57.35,102.83,0,189.84,42.42,261.04,127.22,71.19,84.83,106.79,189.18,106.79,313.11v718.51h-337.5v-628.86c0-62.4-17.14-114.9-51.42-157.54-34.28-42.62-75.6-63.94-123.93-63.94-58.01,0-108.11,24.18-150.29,72.51-42.19,48.35-63.28,105.92-63.28,172.7v605.13h-334.86v-613.04c0-65.92-17.37-121.49-52.08-166.78-34.73-45.25-76.69-67.89-125.9-67.89-58.01,0-108.11,24.84-150.29,74.49-42.19,49.66-63.28,109.21-63.28,178.63v594.58h-340.14V784.83h340.14Z"/>
      <path class="cls-2" d="M5684.76,155.98h337.5v783.11c100.2-117.77,214.44-176.66,342.77-176.66,135.33,0,252.46,58.46,351.34,175.34,98.88,116.9,148.32,257.53,148.32,421.87,0,155.57-48.78,291.15-146.34,406.71-97.56,115.59-210.94,173.37-340.14,173.37-65.06,0-125.04-16.27-179.96-48.78-54.94-32.51-114.49-84.37-178.63-155.57v183.25h-334.86V155.98ZM6264.84,1099.92c-66.8,0-122.61,23.96-167.43,71.85-44.82,47.91-67.24,112.28-67.24,193.14s23.5,141.29,70.53,191.82c47.01,50.55,106.13,75.8,177.32,75.8,65.03,0,119.09-24.82,162.16-74.49,43.05-49.64,64.6-112.27,64.6-187.86s-23.53-137.31-70.54-190.5c-47.03-53.17-103.49-79.76-169.41-79.76Z"/>
      <path class="cls-2" d="M7084.77,1585.93c-55.54,43.77-100.15,100.5-126.09,169.95-65.01,174,4.57,390.01,142.82,508.75,125.76,108.02,292.39,132.14,450.05,93.32,85.68-21.02,165.68-60.83,249.28-88.84,56.77-18.96,115.78-33.95,175.36-40.85,31.94-3.71,82.55-8.93,107.84,16.37,13.7,13.64,16.2,35.53,11.27,54.25-10.97,41.47-46.01,76.04-72.81,107.95-26.5,31.57-51.06,65.98-56.21,107.96-10,80.95,51.53,99.07,105.65,136.57,13.55,9.43,26.47,21.04,36.87,33.87,6.39,7.88,10.12,17.51,11.27,27.59,2.23,20-35.66,59.85-17.98,62.89,3.54.62,7.05-1.12,10.19-2.83,15.23-8.38,28.93-19.25,37.24-34.87,21.09-39.59-3.36-83.21-30.55-112.34-46.48-49.81-74.12-89.42-31.82-155.13,19.42-30.11,47.27-53.64,74.1-77.39,26.76-23.79,53.48-49.1,69.35-81.2,48.75-98.65-23.72-200.41-123.41-221.55-103.74-22.03-216.17,8.62-313.73,42.56-48.95,17.01-106.31,33.94-166.77,46.05-175.15,35.11-375.96,29.97-471.41-128.25-64.23-106.53-43.24-241.94,49.73-313.96"/>
      <path class="cls-2" d="M7571.35,1257.02l-177.09,61.19s-57.39,295.67,221.55,316.24l-44.46-377.44Z"/>
      <path class="cls-1" d="M7871.9,787.46v156.9c-57.96-63.3-112.92-109.44-164.76-138.42-11.94-6.66-24.24-12.6-36.84-17.7-25.68-10.44-52.8-17.76-81.36-21.78-4.98,5.4-10.86,9.66-16.86,14.52-9.24,7.32-18.06,16.98-22.62,28.08,0,0-14.64-21.9-14.82-46.56-.96-.06-1.92-.06-2.88-.06-107.7,0-203.88,36.12-288.48,108.36-22.38,19.14-43.98,40.8-64.8,64.98-99.36,115.62-148.98,254.22-148.98,415.92s46.56,302.4,139.74,416.64c93.12,114.24,206.1,171.36,338.82,171.36,79.08,0,145.44-16.92,199.08-50.76,53.58-33.78,106.8-88.5,159.48-164.1h5.28v193.8h337.5V787.46h-337.5ZM7792.82,1552.76c-47.46,53.22-104.58,79.8-171.36,79.8h-2.94c-.96,0-1.98-.06-2.94-.06h-.3c-21.3-.42-41.34-3.06-60.06-7.92-6-1.62-11.82-3.36-17.34-5.34-32.46-11.34-60.6-30-84.54-55.92-30.6-33.12-50.22-73.8-58.92-122.1-.72-4.38-1.38-8.7-1.98-13.02-.78-5.88-1.44-11.82-1.86-17.94-.54-5.94-.84-11.94-1.02-18.06-.24-7.98-.24-15.6-.06-22.62.18-6,.48-11.88.84-17.7,0-.9.12-1.8.18-2.64.18-1.68.3-3.36.42-5.04,0-.12,0-.24.06-.36.84-8.7,1.92-17.28,3.3-25.62,8.82-53.58,29.64-99.72,62.34-138.54,44.82-53.16,100.62-79.74,167.46-79.74,58.92,0,110.7,21.12,155.22,63.36,4.56,4.38,9.06,8.94,13.5,13.74,47.46,51.42,71.22,112.32,71.22,182.58,0,23.58-2.34,46.08-6.96,67.44-10.14,47.22-31.62,89.1-64.26,125.7Z"/>
      <path class="cls-2" d="M8550.56,635.48c-8.82-408.6-287.94-746.88-764.46-600.9-116.4,38.22-206.1,116.46-284.82,202.38-16.26,17.7-30.84,36.66-44.1,56.58-39.54,59.4-125.58,192.66-141.24,246.24-16.5,33.12-33.06,37.08-61.68,62.76-28.68,25.74-73.98,74.88-25.74,180.42,6.12,15,8.88,46.32,14.76,87.84,2.46,17.64,5.52,37.14,9.54,58.02,8.88,45.84,21.78,115.92,68.82,130.92.02,0,.04.01.06.02-.46,5.37-1.9,17.52-6.32,35.94-6.15,25.61-16.46,49.7-33.56,56.53,18.53-3.06,26.38-14.45,26.42-17.3.8,22.18,10.5,38.03,10.5,38.03,0,0-4.95-29.84-3.27-43.2,1.36-10.76,10.81-52.33,14.43-68.05,0,0,.02,0,.03,0,3.96.72,8.16,1.02,12.54.9,3.3-.06,6.72-.36,10.38-.9,20.58-3.06,45.66-14.1,76.44-36.18,100.02-71.52,193.38-160.68,241.02-237.3,19.08-30.66,30.84-59.34,32.82-84.06,4.56-58.8-8.58-119.22-13.08-172.26-2.1-24.9-2.28-48.3,2.22-68.94,10.62-48.48,65.16-191.94,230.04-217.14,165.12-25.2,320.28,90.12,348,254.76,14.64,87.3,3.18,192-60.9,301.98-35.22,60.42-86.34,122.4-157.68,184.02-88.38,76.02-179.58,130.62-272.4,176.7-26.64,13.26-53.4,25.8-80.28,37.92-.54.3-.96.42-1.38.48-41.82,18.96-83.94,37.02-126.3,55.32-2.76,1.2-5.1,3.24-7.08,6.12-34.5,50.22,43.74,342.54,51,369.36.36,1.32.54,1.98.54,1.98.9-.6,1.8-1.26,2.7-1.92,45.78-34.86,103.56-147.66,163.68-172.62,25.02-10.38,49.98-21.36,74.88-32.88,124.62-57.6,246.42-129,352.32-211.68,201.9-157.74,345.96-356.64,341.16-579.9ZM7595.54,757.7c-1.92,3.3-4.14,6.18-6.6,8.76-4.98,5.4-10.86,9.66-16.86,14.52-9.24,7.32-18.06,16.98-22.62,28.08,0,0-14.64-21.9-14.82-46.56-.06-11.58,3-23.7,12.18-34.44,28.86-33.78,50.04-56.76,50.04-56.76.12,1.26.18,2.58.3,3.9,2.4,26.46,12.78,57.78-1.62,82.5Z"/>
    </g>
  </g>
</svg>